<svg width="200" height="193" xmlns="http://www.w3.org/2000/svg">

 <g>
  <title>background</title>
  <rect fill="none" id="canvas_background" height="195" width="202" y="-1" x="-1"/>
 </g>
 <g>
  <title>Layer 1</title>
  <g id="svg_1">
   <g id="svg_2">
    <g id="svg_3">
     <path id="svg_4" d="m46.8,51.2c-0.7,1.4 -1.5,2.9 -1.9,4.4c-0.3,1.1 -0.5,3.5 -1.3,4.3c-1.2,1.2 -2,8.2 -5.2,5.4c-0.8,-0.7 -0.5,-1.7 -1.2,-2.4c-1,-0.9 -1.3,-3 -1.8,-4.2c-1.1,-3.2 -2.4,-6.3 -3.9,-9.3c-1,4 -1.1,8.5 -1.5,12.7c-0.2,2 0.3,9.4 -3.1,9.1c-0.7,-0.1 -2.8,-1.3 -3.2,-1.9c-0.9,-1.2 0,-4.1 0.2,-5.5c0.4,-4.1 0.9,-8.2 1.4,-12.3c0.4,-4 0.7,-8.1 1.5,-12c0.2,-0.9 0.7,-1.9 0.7,-2.8c0,-0.6 -0.5,-1 -0.5,-1.6c-0.4,-2.9 2.9,-0.2 3.5,0.3c0.6,0.6 1.4,1.1 2,1.6c1.3,1.3 0.1,3.6 0.7,5.2c1.3,3.4 3.4,7.2 4.1,10.8c1,-1 1.3,-3.8 1.8,-5.1c0.8,-2 1.6,-4.1 2.5,-6.1c0.8,-2.1 1.7,-4.2 2.5,-6.3c0.6,-1.6 1.2,-4.3 2.5,-5.4c1.2,-1 2.9,1.2 3.1,2.3c1.4,1.4 1.6,2.6 1.6,4.6c0.1,5.2 0.9,10.2 1.6,15.4c0.5,4.4 1.3,8.7 2,13.1c0.3,1.9 0.8,3.8 1.1,5.7c0.3,1.7 -0.9,4.3 -3.1,2.7c-0.6,-0.4 -0.4,-1 -0.8,-1.4c-0.4,-0.4 -0.9,-0.5 -1.3,-0.9c-1.2,-1.2 -1.3,-3.9 -1.6,-5.5c-0.9,-4.9 -2.1,-9.8 -2.9,-14.8c0.5,0 0.6,0 0.5,-0.1c-0.1,0.1 0,0 0,0z" fill="#2DA48E"/>
    </g>
   </g>
   <g id="svg_5">
    <path id="svg_6" d="m68.6,66c1.3,-0.3 2.6,-0.5 3.8,-0.8c1.6,-0.4 2.9,-1.4 4.4,-1.9c1.8,-0.5 5.4,-2.9 6.4,0.1c0.2,0.8 0.1,2.5 0,3.3c-0.3,1.5 -1.9,1.6 -3.1,1.8c-2.9,0 -5.5,1.3 -8.2,2.1c-1.5,0.5 -5.2,2 -6.5,0.4c-0.6,-0.7 -0.3,-1.8 -1,-2.5c0,-0.6 -1.1,-1.6 -1.2,-2.5c-0.7,-4.1 -0.8,-8.3 -1.1,-12.5c-0.1,-1.7 -0.4,-3.3 -0.6,-4.9c-0.1,-1.1 0,-2.1 -1,-2.6c-1.3,0 -1.8,-1.6 -0.8,-2.4c0.9,-0.6 1.1,-1.9 2,-2.3c0.8,-0.4 2.3,-0.3 3.2,-0.6c3.2,-1 6.1,-2.2 9.1,-3.7c0.4,-0.2 6.3,-2.1 5.2,0c-0.4,1.1 0.9,2.1 -0.1,3.2c-0.8,0.9 -2.3,1.3 -3.4,1.6c-2.7,0.8 -5.3,1.7 -7.8,2.9c-1.8,0.8 -1.9,0.8 -1.6,2.9c0.2,1.4 0.4,2.9 0.6,4.3c1.9,-0.8 3.8,-1.5 5.7,-2.2c1.4,-0.5 3.3,-1.5 4.9,-1.4c3.5,0.2 1.2,4.1 -0.2,5.4c-2.1,1.8 -5.9,3.1 -8.6,3.7c-1.6,0.4 -1.2,1 -1,2.6c0,1.8 -0.1,4.5 0.9,6c0.9,-0.3 -0.2,-0.3 0,0z" fill="#FF5330"/>
   </g>
   <g id="svg_7">
    <path id="svg_8" d="m96.6,58.7c-0.5,0.1 -1.1,0.3 -1.6,0.5c-1,0.4 -0.6,2 -0.6,3c0,2.3 0.6,4.6 1,6.9c0.3,1.9 -0.1,4.3 -2.7,3.5c-2.1,-0.7 -1.6,-2.9 -2.2,-4.5c-1.4,-4.5 -1.5,-9.4 -1.8,-14.1c-0.1,-2.6 0,-5.3 0.2,-7.9c0.2,-2.2 0,-5.2 0.7,-7.3c-1.2,0.7 -1.9,2.2 -3.4,0.7c-1.2,-0.6 0.1,-4.3 0.8,-5c1.1,-1.2 3.4,-1.7 4.9,-2.2c2.2,-0.8 4.6,-1.5 6.9,-1.9c4,-0.7 8.7,-0.9 11.1,3.1c2.5,4.2 0.2,9.1 -2.3,12.7c-1.3,1.6 -2.6,3.2 -4,4.7c-0.6,0.7 -3.3,2.6 -3.3,3.7c0,1.1 2.9,3.7 3.6,4.6c1.6,1.9 3.2,3.8 4.7,5.7c1.1,1.4 3.7,3.7 2.9,5.6c-1.3,3.1 -4.5,0.2 -5.9,-1c-3.4,-3.3 -6.2,-7 -9,-10.8c-0.3,0.1 0.5,0.7 0,0zm-2.1,-6.6c2.6,-1.3 4.4,-4.9 5.6,-7.4c1.2,-2.7 3.5,-6 0.1,-7.9c-1.3,-0.7 -2.7,-0.9 -4.1,-0.5c-2.1,0.6 -1.4,2.4 -1.4,4.2c0.1,3.9 -0.2,7.7 -0.2,11.6c0.2,-0.1 0,-0.8 0,0z" fill="#597533"/>
   </g>
   <g id="svg_9">
    <g id="svg_10">
     <g id="svg_11">
      <path id="svg_12" d="m125.5,58.7c-0.5,0.1 -1.1,0.3 -1.6,0.5c-1,0.4 -0.6,2 -0.6,3c0,2.3 0.6,4.6 1,6.9c0.3,1.9 -0.1,4.3 -2.7,3.5c-2.1,-0.7 -1.6,-2.9 -2.2,-4.5c-1.4,-4.5 -1.5,-9.4 -1.8,-14.1c-0.1,-2.6 0,-5.3 0.2,-7.9c0.2,-2.2 0,-5.2 0.7,-7.3c-1.2,0.7 -1.9,2.2 -3.4,0.7c-0.7,-1.1 0.2,-4.3 1,-5.1c1.1,-1.2 3.4,-1.7 4.9,-2.2c2.2,-0.8 4.6,-1.5 6.9,-1.9c4,-0.7 8.7,-0.9 11.1,3.1c2.5,4.2 0.2,9.1 -2.3,12.7c-1.3,1.6 -2.6,3.2 -4,4.7c-0.6,0.7 -3.3,2.6 -3.3,3.7c0,1.1 2.9,3.7 3.6,4.6c1.6,1.9 3.2,3.8 4.7,5.7c1.1,1.4 3.7,3.7 2.9,5.6c-1.3,3.1 -4.5,0.2 -5.9,-1c-3.3,-3.2 -6.4,-7 -9.2,-10.7c-0.3,0.1 0.6,0.7 0,0zm-2,-6.6c2.6,-1.3 4.4,-4.9 5.6,-7.4c1.2,-2.7 3.5,-6 0.1,-7.9c-1.3,-0.7 -2.7,-0.9 -4.1,-0.5c-2.1,0.6 -1.4,2.4 -1.4,4.2c0.1,3.9 -0.2,7.7 -0.2,11.6c0.2,-0.1 0,-0.8 0,0z" fill="#F3BD69"/>
     </g>
    </g>
   </g>
   <g id="svg_13">
    <g id="svg_14">
     <path id="svg_15" d="m157.7,47.9c1.5,-2.9 2.8,-5.9 4.3,-8.7c0.4,-1.1 1.6,-1.8 2.1,-2.9c0.5,-1.2 1.2,-2.9 2.1,-3.9c0.8,-0.9 2,-0.7 2.9,0c1.1,0.9 0.3,1.6 0.3,2.7c0.2,1.2 -0.8,2.3 -1.2,3.4c-0.7,1.6 -1.2,3.3 -2,4.9c-3,6.4 -5.8,12.8 -7.9,19.6c-0.9,3.1 -1.6,7.2 -3.5,9.9c-0.6,0.8 -1.7,0.9 -2.3,1.9c-0.2,1 -1,2.6 -2,3c-1.1,0.7 -2.6,-0.4 -2.7,-1.6c-0.1,-1.5 0.7,-3.4 1.1,-4.8c1.1,-3.4 2.4,-6.8 3.6,-10.1c0.6,-1.6 1.1,-3.1 1.7,-4.7c0.8,-2.2 0.8,-2.3 -0.5,-4.3c-2,-3 -4.1,-5.9 -6.1,-8.9c-1.6,-2.3 -2.7,-4.9 -4.2,-7.3c-0.7,-1.1 -1.1,-2.1 -0.2,-3.3c0.8,-1.1 2.4,-2.6 3.5,-0.9c2.3,2.3 4.2,5.3 6,8.1c1,1.4 2,2.9 2.9,4.4c0.6,0.8 2.1,2.9 2.1,3.5c0.3,-0.5 0,0 0,0z" fill="#FF5330"/>
    </g>
   </g>
  </g>
  <g id="svg_16">
   <path id="svg_17" d="m61.7,149.2c-1.8,0.7 -4.2,1.6 -6.1,1.6c-3.1,0 -0.6,-3.5 0.5,-4.3c2.2,-1.6 4.7,-2.7 7.2,-3.6c1.9,-0.7 4.3,-1.8 6.4,-1.5c5.8,0.9 3.7,8.6 1.9,11.9c-1.4,2.6 -3,5.1 -4.7,7.6c-1.4,2 -3.4,4.3 -4.2,6.7c4.2,-1.6 8.7,-2.5 13.2,-2.6c1.5,0 4.2,-0.2 4.9,1.5c0.9,2.2 0.5,4.2 -2.2,4.1c-6.2,-0.3 -12.6,1.3 -18.8,2.3c-2.1,0.3 -4.5,0.9 -6.6,0.1c-4,-1.4 3.1,-9 4.3,-10.4c2.6,-3.7 5.9,-6.9 8.6,-10.5c0.5,-0.6 3,-3.5 1.5,-4.1c-1.8,-0.7 -4.3,0.5 -5.9,1.2c-0.4,0.2 2.4,-1 0,0z" fill="#F3BD69"/>
  </g>
  <g id="svg_18">
   <path id="svg_19" d="m105.7,157.6c0,6.4 -3.3,15.2 -10,17.4c-8.1,3.6 -11.8,-6.4 -11.9,-12.8c-0.1,-4.2 1.9,-7.2 3.4,-10.9c1.4,-3 4.2,-5.8 7.7,-5.9c3.7,-0.2 6.3,1.8 8.3,4.6c1.1,1.3 4.1,6 2.5,7.6zm-5.3,-0.5c0.7,-4 -3.8,-7.6 -7.6,-5.8c-3.7,1.8 -4.6,8.4 -4.3,11.9c0.2,2.3 0.8,4.4 1.9,6.5c0.8,1.5 3.5,2.3 4.8,1c3.5,-3.9 5.1,-8.5 5.2,-13.6c0.1,-0.5 -0.1,2.5 0,0z" fill="#FF5330"/>
  </g>
  <g id="svg_25">
   <path id="svg_26" d="m195.9,108.1c-0.2,-0.2 -0.5,-0.3 -0.9,-0.3c-0.3,0 -0.7,0.1 -1.1,0.3c-1.8,1.3 -3.9,3.1 -6.2,5.7c-0.2,0.2 -0.4,0.4 -0.7,0.7l-0.4,0.4l-0.4,0.4c-0.7,0.7 -1.2,1.3 -1.7,1.8c-1.4,1.4 -2.5,2.5 -3.3,3.1c-0.3,0.2 -0.6,0.3 -1,0.4c-0.3,0.1 -0.7,0.2 -1.1,0.3c-0.8,0.1 -1,-0.2 -0.6,-1c0.9,-1.7 1.1,-3.5 0.8,-5.3c-0.3,-1.7 -1.2,-3.2 -2.6,-4.4c-1.5,-1.4 -2.2,-2.3 -2.1,-2.9c0.1,-0.5 1,-1.2 2.9,-2.1l0.1,-0.1l0.1,0c0.9,-0.3 1.1,-0.9 0.7,-1.8c-0.7,-1.7 -1.9,-2 -3.7,-0.9c-1.8,1 -3.3,2.1 -4.6,3.3l-0.1,0.2l-0.1,0.2c-0.1,0.5 0,1 0.2,1.5c-0.6,0.3 -1.3,0.9 -2,1.9c-0.2,0.2 -0.4,0.5 -0.7,0.9l-0.4,0.5l-0.4,0.5c-0.6,0.8 -1.2,1.5 -1.7,2c-0.3,0.3 -0.6,0.6 -0.9,1l-0.9,1.1c-0.7,0.9 -1.3,1.5 -1.9,2c-1,0.8 -1.8,1.1 -2.7,0.9c-0.8,-0.2 -1.5,-0.9 -1.9,-2.1c-0.4,-0.9 -0.4,-2 -0.2,-3.2c0.2,-0.9 0.5,-2.1 0.8,-3.5l0.5,-1.7l0.5,-1.7c0.2,-0.9 0.2,-1.7 -0.2,-2.5c-0.4,-0.7 -0.9,-1 -1.4,-0.8c-0.8,0.3 -1.5,0.2 -2,-0.2c-0.2,-0.1 -0.4,-0.4 -0.6,-0.7l-0.3,-0.4l-0.3,-0.4l-0.5,-0.5l-0.5,-0.5c-0.4,-0.4 -0.7,-0.8 -1,-1c-0.8,-0.7 -1.7,-1 -2.6,-0.9l-0.3,0.1c-1.6,0.1 -3.3,1.3 -5,3.8c-0.6,0.8 -1.1,1.7 -1.7,2.7c-0.1,0.2 -0.2,0.4 -0.3,0.5c-0.1,0.1 -0.1,0.3 -0.2,0.5c-0.2,0.3 -0.3,0.5 -0.3,0.5l0,0l-0.1,0.3l-0.1,0.2c-0.1,0.1 -0.1,0.2 -0.1,0.4c0,0 0,0 -0.1,0c-0.4,0.8 -0.8,2.7 -0.5,4.1c0.2,1.4 0.8,2.9 1.8,4.4c1,1.4 2.3,2.3 3.8,2.5c-1.1,1.5 -2.4,3 -4.2,4.5c-1.5,1.2 -2.8,1 -3.9,-0.7c-0.7,-0.9 -1,-1.9 -1.1,-3c-0.1,-1.2 -0.1,-2.7 0.2,-4.5c0.3,-2 -0.4,-3.9 -2.1,-5.8c-0.9,-1.1 -2,-1.3 -3.2,-0.8c-2.5,1 -4.7,1.9 -6.5,2.8l-0.2,0.1l-0.2,0.1c-0.1,0.1 -0.2,0.1 -0.3,0.1c-0.2,0 -0.4,-0.1 -0.6,-0.5c-0.8,-1.3 -1.6,-2 -2.3,-2.1c-0.4,0 -1.4,0.3 -2.8,0.9l-0.9,0.4l-0.9,0.4c-0.7,0.4 -1.2,0.7 -1.7,1.1c-0.4,0.3 -0.8,0.5 -0.9,0.5c-0.2,-0.1 -0.4,-0.3 -0.6,-0.8c-0.5,-1.1 -1,-1.8 -1.5,-1.9c-0.1,0 -0.3,0 -0.4,0c-0.4,-0.1 -0.8,0.2 -1.5,0.8c-0.3,0.3 -0.6,0.7 -1.1,1.1l-0.5,0.6l-0.2,0.3l-0.2,0.3c-0.1,0.1 -0.3,0.3 -0.5,0.6l-0.2,0.2l-0.2,0.2c-0.1,0.2 -0.3,0.3 -0.4,0.5c-0.7,0.9 -1.3,1.6 -2,2.3c-1.9,2 -3.8,3.4 -5.8,4.1c-1.2,0.4 -2.1,-0.1 -2.8,-1.8c-0.7,-1.5 -0.8,-3 -0.5,-4.5c1.5,-6.3 2.9,-11.6 4.2,-16c2.2,-7.1 2.5,-8.4 4.7,-14.9c0.2,-0.7 0.2,-1.6 0.1,-2.7c0,-0.2 -0.2,-0.5 -0.4,-0.8c-0.3,-0.3 -0.5,-0.4 -0.6,-0.4c-0.2,0 -0.5,0.2 -0.8,0.4c-0.2,0.2 -0.5,0.4 -0.7,0.6c-0.1,0.1 -0.2,0.4 -0.3,0.7l-0.1,0.4l-0.1,0.4l-0.5,1.6l-0.5,1.6c-0.4,1.3 -0.8,2.4 -1.2,3.2c-1.3,3 -0.8,1.7 -2.3,6.8c-1.4,4.4 -2.5,8.6 -3.5,12.5c-0.4,1.5 -0.7,2.3 -1,2.5c-0.3,0.1 -3,-1.6 -3,-1.6c0.2,0 1,-0.1 1.2,-0.2l0.6,-0.2l-0.2,-0.3l-0.2,-0.3c-0.1,-0.3 -0.2,-0.4 -0.4,-0.5c-1.3,-1 -3,-1.3 -5,-0.7c-1.8,0.7 -3.4,1.9 -4.7,3.5c-0.1,0 -0.2,0 -0.3,0c-0.7,0.1 -2,1.2 -4,3.4c-0.3,0.3 -0.7,0.7 -1.2,1.3l-0.6,0.6l-0.6,0.6c-0.8,0.9 -1.4,1.5 -1.8,1.8c-1.1,0.9 -2.1,1.4 -2.7,1.4c-0.8,0 -1.5,-0.6 -2.2,-1.7c-0.6,-1 -1,-2.4 -1.3,-4.3c-0.1,-0.7 -0.2,-1.5 -0.2,-2.4c0,-0.3 0,-0.7 -0.1,-1.1l0,-0.5l0,-0.5c-0.1,-1.7 -0.4,-3.5 -0.9,-5.2c-0.1,-0.3 -0.3,-0.5 -0.8,-0.7c-0.4,-0.2 -0.8,-0.3 -1.2,-0.4c-0.2,0 -0.4,0 -0.6,0.1c-0.1,0 -0.2,0.1 -0.3,0.2c-0.1,0.1 -0.2,0.1 -0.2,0.2c-0.4,0.6 -0.6,1.7 -0.5,3.3c0.1,1.3 0.9,7.1 1.4,6.4c0.1,0.3 0.1,0.6 0.2,1l0.2,1l0.2,1.1c0.2,0.7 0.3,1.4 0.5,1.9c-1.2,1.3 -2.7,2.7 -4.6,4.2c-1.7,1.4 -3,1 -3.7,-1.3c-1,-3.3 -1.1,-6.7 -0.2,-10.3c0.3,-1 0.2,-2 0,-3c-0.1,-0.3 -0.3,-0.6 -0.6,-0.8c-0.3,-0.3 -0.7,-0.5 -1,-0.5c-0.2,0 -0.5,0 -0.8,0.3c-0.3,0.2 -0.5,0.4 -0.8,0.7c-0.2,0.2 -0.3,0.4 -0.5,0.7l-0.2,0.4c-0.1,0.2 -0.1,0.3 -0.2,0.4c-0.8,1.2 -1.8,1.7 -3,1.5c-0.6,-0.1 -1,-0.4 -1.2,-0.9c-0.1,-0.2 -0.2,-0.4 -0.2,-0.7l-0.1,-0.4l0,-0.4c-0.4,-3.1 -1.6,-5.2 -3.6,-6.4c-1.1,-0.7 -2.1,-0.8 -3,-0.2c-0.9,0.5 -1.4,1.4 -1.6,2.8c-0.3,2.2 0.6,4.4 2.7,6.5c0.3,0.3 0.5,0.7 0.6,1l-0.1,0c-0.5,0.2 -0.9,0.4 -1.3,0.6c-0.9,0.5 -2.1,1.4 -3.6,2.5c-1,0.8 -2.3,1.8 -3.7,3.1c-0.4,0.3 -0.6,0.4 -0.7,0.4c-0.3,0 -0.5,-0.5 -0.6,-1.3c-0.1,-0.4 -0.1,-1.1 -0.2,-2c0,-0.3 -0.1,-0.7 -0.1,-1.3l-0.1,-1.3c-0.2,-2.2 -0.4,-3.4 -0.4,-3.8l-0.2,-1.4l-0.3,-1.4c-0.2,-1 -0.5,-2 -0.7,-2.8c-0.1,-0.4 -0.4,-0.8 -0.8,-1.1c-0.4,-0.4 -0.8,-0.6 -1.2,-0.6l-0.1,0c-0.3,0 -0.6,0.2 -1,0.6c-0.1,0.1 -0.3,0.3 -0.4,0.5l-0.4,0.5c-0.3,0.4 -0.6,0.8 -0.9,1.4l-0.9,1.4c-0.2,0.4 -0.3,0.5 -0.3,0.5c0,0 -0.2,-0.1 -0.6,-0.5c-1.2,-1.3 -2.6,-2 -4.2,-2c-0.6,0 -1.1,0.1 -1.8,0.3c-2.1,0.6 -3.9,2.3 -5.2,4.9c-0.7,1.4 -0.8,2.7 -0.3,3.9c0.5,1.2 1.4,2.1 2.9,2.7c0.6,0.2 1.3,0.4 1.9,0.4c0.5,0 1.1,-0.1 1.6,-0.3c0.7,-0.3 1.7,-0.9 2.9,-1.7l0.5,-0.3l0,0.1c0,0.3 0,0.4 0,0.5c-0.2,1.1 -0.7,2.1 -1.6,2.9c-0.9,0.9 -2,1.4 -3.3,1.7c-0.2,0.1 -0.5,0.1 -0.8,0.1c-0.7,0 -1.4,-0.2 -2.2,-0.6c-1,-0.6 -1.9,-1.4 -2.6,-2.5c-2.1,-3.2 -2.8,-6.8 -2.2,-10.9c0.8,-5.8 2.7,-10.6 5.5,-14.3c1.6,-2 3.3,-3.1 5.2,-3.1c0,0 0,0 0,0c1.4,0 2.6,0.4 3.7,1.1c1.1,0.7 2,1.8 2.5,3.2c0.3,0.9 0.8,1.9 1.3,2.8c0,0 0,0.1 0.1,0.1l0,0.1l0.1,0.2c0.1,0.2 0.3,0.4 0.4,0.6l0.1,0.1l0.1,0.1l0.1,0c0.4,0.4 0.8,0.6 1.2,0.6c0.2,0 0.3,0 0.5,-0.1c0.2,-0.1 0.6,-0.4 0.7,-1c0.1,-0.5 0,-1.1 -0.3,-1.7l-0.1,-0.1c-0.5,-1.3 -1,-2.4 -1.6,-3.4c-2,-3.7 -5,-5.5 -9,-5.6c-2.2,0 -4.2,0.8 -5.8,2.4l0,0c-1,0.9 -2.1,2.2 -3.3,3.9c-1.4,2.1 -2.5,4.3 -3.3,6.5c-1.5,4.5 -2.1,8.6 -1.8,12.2l0,0.4c0.1,0.6 0.1,1.2 0.3,1.8l0.1,0.2l0.2,0.7c0.1,0.5 0.3,0.9 0.4,1.4c0.2,0.4 0.4,0.9 0.7,1.5l0.7,1.5c1.7,3.5 4.2,5.3 7.6,5.4l0.3,0c0.6,0 1.2,-0.1 1.9,-0.2l1.1,-0.2l1,-0.3c1.4,-0.4 2.6,-1.2 3.7,-2.6c1,-1.3 1.5,-2.7 1.6,-4.2c0,-2.7 0.9,-5.3 2.4,-7.6c0.1,-0.1 0.2,-0.3 0.4,-0.4c0,0 0.1,-0.1 0.1,-0.1c0,0 0,0 0,0.1l0.1,0.2l0,0.3c0,0.6 0.2,2.4 0.6,5.5c0.3,2.8 0.6,5 0.8,6.5c0.1,0.7 0,1.2 -0.4,1.7c-0.1,0.1 -0.3,0.4 -0.8,1c-0.2,0.3 -0.4,0.5 -0.6,0.8c-0.2,0.3 -0.5,0.6 -0.7,0.9c-1.3,1.6 -2.5,3.2 -3.5,4.8c-3.3,4.8 -5.5,9.1 -6.6,12.9c0,0.1 -0.1,0.2 -0.1,0.5c0,0.2 -0.1,0.5 -0.1,0.8c0,0.8 0,1.6 0.1,2.3c0.3,2.3 1.2,4.1 2.8,5.3l0.4,0.3l0.4,0.2c0.9,0.5 1.9,0.8 3.1,1c0.5,0.1 1,0.1 1.4,0.1c2,0 3.6,-0.7 4.7,-2.2c2.7,-3.4 4,-6.6 4.1,-9.4c0.1,-4.8 -0.1,-10.4 -0.4,-16.6c0,-0.5 0.1,-1 0.2,-1.3c0.1,-0.3 0.4,-0.6 0.8,-1l0.8,-0.8l0.9,-0.8c0.7,-0.6 1.2,-1.2 1.7,-1.6c1.3,-1.2 2.4,-2.1 3.3,-2.7c0.1,-0.1 0.4,-0.2 0.7,-0.4l0.9,-0.5c1.1,-0.6 1.3,-0.9 1.4,-1l0.2,-0.2c0.2,0.1 0.3,0.2 0.5,0.3c1.8,1 3.5,1.2 5.3,0.7l0.2,0l0,0l0.3,-0.1l0.3,-0.1c0.5,-0.2 0.9,-0.2 1.1,0c0.2,0.2 0.3,0.6 0.3,1.2l0,2c0,0.7 0.1,1.4 0.1,2c0.1,1.5 0.5,2.8 1,3.9c1,2.3 2.3,3.5 4.1,3.8c1.6,0.3 3.3,-0.4 5.1,-2c1,-0.9 2.2,-2.2 3.5,-3.8c0.9,1.2 2,2 3.3,2.1c1.7,0.2 3.6,-0.6 5.7,-2.5c0.5,-0.4 1.1,-1.1 1.8,-1.9c0.3,-0.3 0.6,-0.7 1,-1.2l1,-1.2c0.1,-0.1 0.2,-0.3 0.3,-0.4c0,0.8 0,1.4 0.1,1.9c0.2,1.1 0.6,2 1.3,2.7c0.7,0.8 1.8,1.4 3.1,1.8c0.4,0.1 1,0.2 1.7,0.4l0.8,0.2l0.8,0.2c0.3,0.1 0.6,0 1,-0.2c0.2,-0.1 0.3,-0.2 0.5,-0.3c0.1,-0.1 0.3,-0.2 0.5,-0.3c0.4,-0.3 0.8,-0.7 1.4,-1.2l0.6,-0.6l0.7,-0.6c0.7,-0.6 1.3,-0.5 1.6,0.3c0.2,0.4 0.5,1.1 1.1,2.1c0.6,1.2 1.6,2 3,2.3c1.3,0.3 2.6,0.2 3.9,-0.5c1.4,-0.7 3.2,-2.2 5.4,-4.6c0.4,-0.4 0.8,-0.9 1.2,-1.4c0.3,-0.3 0.7,-0.8 1.1,-1.3c0.9,-1 1.4,-1.6 1.6,-1.8c0.2,-0.2 0.4,-0.4 0.5,-0.6c0.1,0.5 0.2,1 0.2,1.5c0.2,1.2 0.2,2.3 0.2,3.1c0,0.2 0,0.6 -0.1,1l-0.1,0.5l-0.1,0.5l0,0.3l0,0.3c0,0.3 0.1,0.5 0.2,0.6c0.2,0.3 0.4,0.5 0.6,0.7c0.2,0.2 0.5,0.3 0.7,0.4c0.2,0 0.4,-0.1 0.7,-0.2c0.3,-0.2 0.5,-0.3 0.6,-0.5c0.4,-0.8 0.8,-1.8 1.3,-3c0.5,-1.5 1.1,-2.7 1.7,-3.5c0.8,-1 1.9,-1.7 3.3,-2.1c0.7,-0.2 1.2,-0.2 1.4,-0.1c0.2,0.2 0.3,0.6 0.2,1.3l-0.2,1.3l-0.2,1.3c-0.2,1.2 -0.4,2 -0.5,2.6c-0.2,1.2 -0.2,2.1 0,2.7c0.1,0.3 0.3,0.5 0.6,0.8c0.2,0.2 0.6,0.4 0.9,0.6c0.1,0 0.2,-0.1 0.5,-0.3c0.3,-0.3 0.4,-0.5 0.5,-0.7c0.7,-1.8 1.2,-3.3 1.4,-4.3c0.6,-2.7 2,-4.6 4.2,-5.7c1.5,-0.8 2.8,-1 4,-0.6c0.3,0.1 0.5,0.5 0.7,1.3c0.1,0.3 0.2,0.7 0.2,1.1c0,0.3 0.1,0.7 0.1,1c0,0.4 0,0.8 0,1.3l-0.1,1.3c-0.1,1.2 0,2.1 0,2.7c0.3,2.7 1.3,4.6 2.9,5.7c1.2,0.8 2.5,1.1 3.9,0.9c1.4,-0.1 2.6,-0.7 3.6,-1.7c0.5,-0.5 1,-1.1 1.6,-1.8l0.7,-0.9l0.7,-0.9l0,0c0.3,-0.4 0.7,-1.1 1.2,-2c0.2,-0.3 0.4,-0.7 0.7,-1.3l0.1,-0.2c0,0 0.1,0 0.1,0c1.4,-0.4 2.4,-0.5 3.1,-0.3c0.9,0.2 1.7,0.9 2.2,2.1c0.1,0.2 0.3,0.4 0.6,0.7l0.4,0.3l0.4,0.3c1.5,1.4 3.4,1.5 5.5,0.5c0.9,-0.5 1.9,-1.1 2.7,-2.1c0.3,-0.3 0.7,-0.8 1.1,-1.3l0.5,-0.7l0.5,-0.6c0.9,-1.1 2.5,-3.2 4.9,-6.3c0.2,-0.2 0.3,-0.5 0.4,-0.7c1.3,1.2 2.6,2.3 3.8,3.6c0.9,0.9 1.3,1.9 1.2,2.9c-0.1,1 -0.7,1.9 -1.7,2.7c-0.8,0.6 -1.4,0.5 -1.9,-0.3l-0.4,-0.7l-0.4,-0.7c-0.3,-0.5 -0.7,-1 -1,-1.3c-0.4,-0.5 -0.9,-0.7 -1.3,-0.6c-0.4,0.1 -0.7,0.5 -0.9,1.2c-0.4,1.2 -0.4,2.3 -0.2,3.3c0.3,1.1 0.9,1.9 1.8,2.3l1,0.5l1,0.5c0.8,0.3 1.4,0.6 2.1,0.8c1.6,0.4 3,0.5 4.4,0.1c1.5,-0.4 3.3,-1.5 5.3,-3.3c0.7,-0.6 1.5,-1.4 2.4,-2.3c0.3,-0.3 0.6,-0.6 1.1,-1.1l0.5,-0.5l0.5,-0.5c1.6,-1.6 3.6,-3.6 6.2,-6l0,0l0.1,-0.1c0.1,-0.1 0.1,-0.1 0.2,-0.2c0.2,-0.2 0.3,-0.4 0.4,-0.6c0.6,-1.2 0.5,-1.7 0.2,-2.1zm-175.3,1.2c-0.3,0.2 -0.6,0.4 -1,0.6l-1.1,0.6c-0.5,0.3 -0.9,0.4 -1.4,0.4c-0.3,0 -0.6,-0.1 -0.9,-0.2c0,0 -0.2,-0.1 -0.4,-0.6c-0.1,-0.4 -0.2,-0.7 -0.2,-1c0.1,-0.9 0.7,-1.6 1.9,-2.3c0.8,-0.5 1.5,-0.7 2.1,-0.7c0.3,0 0.6,0.1 0.9,0.2c0.2,0.1 0.5,0.3 0.7,0.6l0.4,0.4l0.2,0.2c-0.1,0.7 -0.5,1.3 -1.2,1.8zm9.9,28.8c-0.1,2.1 -1,4.6 -2.8,7.3c-0.6,0.9 -1.4,1.5 -2.4,1.8c-0.3,0.1 -0.6,0.1 -0.9,0.1c-0.7,0 -1.4,-0.2 -2.1,-0.5l-0.2,-0.1l-0.2,-0.1c-1,-0.7 -1.5,-1.9 -1.6,-3.7c0,-0.6 0,-1.3 0.2,-2l0.1,-0.7l0.1,-0.3l0,-0.2c0.6,-2.2 1.4,-4.1 2.5,-5.8c0.9,-1.4 2.1,-3 3.5,-4.9l3.7,-4.8c0.1,-0.1 0.1,-0.1 0.2,-0.2c0,0.1 0,0.2 0.1,0.3c0,0.2 0.1,1.4 0.1,5.6c-0.2,3.6 -0.2,6.4 -0.3,8.2zm14,-30.7c-0.2,0.1 -0.4,0 -0.6,-0.4l-0.2,-0.2l-0.1,-0.2c-0.1,-0.2 -0.2,-0.4 -0.3,-0.4c-0.4,-0.5 -0.6,-1 -0.6,-1.4l-0.1,-0.3l-0.1,-0.3c0,-0.3 -0.1,-0.4 -0.1,-0.6c0,-0.4 0.1,-0.7 0.4,-0.8c0,0 0.1,0 0.1,0l0,0l0,0c0.3,0 0.6,0.1 0.8,0.5l0.1,0.3l0.1,0.3c0.1,0.2 0.2,0.4 0.2,0.5c0.1,0.1 0.1,0.3 0.2,0.6c0.1,0.3 0.2,0.7 0.3,1c0.3,0.8 0.2,1.3 -0.1,1.4zm47.1,6.4c-1.7,2.4 -3.6,3.9 -5.8,4.3c-1,0.2 -1.9,-0.1 -2.7,-0.9c-0.8,-0.8 -1.1,-1.8 -0.8,-2.8c0.2,-0.8 0.9,-1.6 2.2,-2.5c1.3,-0.9 2.5,-1.4 3.5,-1.4c0.2,0.1 0.4,0.2 0.8,0.4l0.4,0.2l0.4,0.3c0.8,0.4 1.4,0.8 1.9,1.1c0.1,0.1 0.2,0.3 0.2,0.6c0,0.3 0,0.6 -0.1,0.7zm62.5,-6.6l-0.5,1.7c-0.4,1.3 -0.8,2.4 -1.2,3.3c-0.7,1.6 -2.2,2.6 -4.5,2.8c-1.5,0.2 -2.5,-0.4 -3.2,-1.7l-0.2,-0.4l-0.2,-0.3c-0.2,-0.3 -0.3,-0.5 -0.3,-0.7c-0.2,-0.5 -0.4,-1.1 -0.4,-1.8c-0.2,-1.4 0,-2.7 0.6,-4.1c0.4,-1 1.2,-2.1 2.3,-3.3c0.7,-0.8 1.5,-1.1 2.6,-1c1,0.1 1.9,0.6 2.6,1.5l0.2,0.3l0.2,0.3c0.2,0.2 0.3,0.4 0.5,0.5c0.4,0.3 0.9,0.4 1.4,0.3c0.1,0 0.2,0.1 0.3,0.3c0.2,0.2 0.2,0.4 0.2,0.5l-0.4,1.8z" fill="#385052"/>
   <path id="svg_27" d="m62.7,99.2c0.6,0 1.2,-0.3 2,-1.1c0.7,-0.7 1.1,-1.4 1.1,-2c0,-0.5 -0.4,-1.1 -1.1,-1.7c-0.7,-0.6 -1.4,-0.9 -1.9,-0.9c-1.8,0.1 -2.7,1 -2.6,2.7c0,0.7 0.3,1.4 0.8,2c0.5,0.7 1.1,1 1.7,1z" fill="#385052"/>
  </g>
  <g fill="#597533" id="svg_31">
   <path id="svg_30" d="m117.90251,149.2c-1.8,0.7 -4.2,1.6 -6.1,1.6c-3.1,0 -0.6,-3.5 0.5,-4.3c2.2,-1.6 4.7,-2.7 7.2,-3.6c1.9,-0.7 4.3,-1.8 6.4,-1.5c5.8,0.9 3.7,8.6 1.9,11.9c-1.4,2.6 -3,5.1 -4.7,7.6c-1.4,2 -3.4,4.3 -4.2,6.7c4.2,-1.6 8.7,-2.5 13.2,-2.6c1.5,0 4.2,-0.2 4.9,1.5c0.9,2.2 0.5,4.2 -2.2,4.1c-6.2,-0.3 -12.6,1.3 -18.8,2.3c-2.1,0.3 -4.5,0.9 -6.6,0.1c-4,-1.4 3.1,-9 4.3,-10.4c2.6,-3.7 5.9,-6.9 8.6,-10.5c0.5,-0.6 3,-3.5 1.5,-4.1c-1.8,-0.7 -4.3,0.5 -5.9,1.2c-0.4,0.2 2.4,-1 0,0z" fill="#597533"/>
  </g>
  <g id="svg_33">
   <path id="svg_32" d="m161.39618,157.6c0,6.4 -3.3,15.2 -10,17.4c-8.1,3.6 -11.8,-6.4 -11.9,-12.8c-0.1,-4.2 1.9,-7.2 3.4,-10.9c1.4,-3 4.2,-5.8 7.7,-5.9c3.7,-0.2 6.3,1.8 8.3,4.6c1.1,1.3 4.1,6 2.5,7.6zm-5.3,-0.5c0.7,-4 -3.8,-7.6 -7.6,-5.8c-3.7,1.8 -4.6,8.4 -4.3,11.9c0.2,2.3 0.8,4.4 1.9,6.5c0.8,1.5 3.5,2.3 4.8,1c3.5,-3.9 5.1,-8.5 5.2,-13.6c0.1,-0.5 -0.1,2.5 0,0z" fill="#385052"/>
  </g>
 </g>
</svg>